<svg width="300" height="300" viewBox="0 0 300 300" fill="none" xmlns="http://www.w3.org/2000/svg">
<path d="M135.232 0.878657C134.163 1.38075 133.093 2.25941 132.841 2.82426C132.653 3.45188 132.086 7.40585 131.709 11.6109L131.017 19.2678L127.997 20.3347C126.361 20.9623 122.649 22.9707 119.818 24.8536L114.659 28.2427L107.865 25.1046C104.153 23.3473 100.378 21.9665 99.4972 21.9665C96.9806 21.9665 95.282 24.1004 88.4873 35.8996C80.0568 50.523 79.9939 49.9582 89.1164 56.6736L95.7224 61.6318L95.1561 66.2761C94.9045 68.9121 94.9045 72.9916 95.219 75.6276L95.7224 80.3975L91.633 83.2845C89.3681 84.8536 86.2853 87.1757 84.8383 88.3054C80.6231 91.6946 80.8747 92.7615 88.8648 106.506C92.5138 112.908 96.1627 118.494 96.8548 118.996C98.868 120.377 100.063 120.126 107.676 116.736L114.785 113.598L117.805 115.732C120.888 117.929 129.318 122.385 130.388 122.385C130.702 122.385 131.332 125.962 131.709 130.293C132.149 134.623 132.716 138.64 133.093 139.331C134.226 141.402 137.245 141.841 150.08 141.841C162.914 141.841 165.934 141.402 167.066 139.331C167.444 138.64 168.01 134.623 168.451 130.293C168.828 125.962 169.457 122.385 169.772 122.385C170.778 122.385 179.335 117.866 182.355 115.732L185.311 113.598L192.295 116.736C196.133 118.431 199.907 119.874 200.725 119.874C201.543 119.874 202.927 119.247 203.745 118.431C205.255 117.05 216.768 97.6569 218.027 94.5188C219.096 91.6318 217.586 89.5607 211.106 84.9163L205.129 80.6485V70.795L205.066 61.0042L210.854 56.8619C217.712 51.9038 218.278 51.3389 218.215 48.7029C218.152 46.6318 205.633 24.2887 203.682 22.7197C201.921 21.3389 199.152 21.9038 192.295 25.1046L185.5 28.2427L180.341 24.8536C177.51 22.9707 173.798 20.9623 172.163 20.3347L169.143 19.2678L168.451 11.4854C168.01 7.21757 167.444 3.20083 167.066 2.51046C165.934 0.439326 162.914 -4.50015e-06 149.828 -4.50015e-06C140.643 0.062757 136.679 0.251042 135.232 0.878657ZM158.762 17.9498C159.58 26.046 160.083 27.113 163.858 28.3054C168.136 29.6862 174.427 33.2008 178.391 36.3389C181.033 38.4728 182.984 39.5397 184.116 39.5397C185.06 39.5397 188.583 38.2845 191.98 36.7155C195.315 35.1464 198.146 33.8912 198.209 33.8912C198.46 33.8912 206.073 46.8828 206.073 47.2594C206.073 47.3849 203.431 49.3933 200.159 51.7155C193.553 56.3598 192.987 57.364 194.056 62.1966C194.434 63.7029 194.749 67.6569 194.749 70.9205C194.749 74.1841 194.434 78.1381 194.056 79.6443C192.987 84.477 193.553 85.4812 200.159 90.1255C203.431 92.4477 206.073 94.4561 206.073 94.5816C206.073 94.8954 199.09 106.757 198.523 107.51C198.272 107.762 195.315 106.695 191.917 105.126C188.583 103.556 185.06 102.301 184.116 102.301C183.109 102.301 180.719 103.619 177.825 105.816C173.043 109.393 167.884 112.218 163.732 113.598C162.411 113.975 160.964 114.979 160.461 115.669C159.769 116.799 158.259 126.59 158.259 130.23C158.259 131.046 157.063 131.172 150.457 131.172C141.398 131.172 142.216 131.925 141.524 123.138C141.02 116.485 140.139 114.791 136.365 113.536C132.024 112.155 125.732 108.703 121.769 105.502C119.189 103.431 117.176 102.301 116.106 102.301C115.163 102.301 111.64 103.556 108.242 105.126C104.845 106.695 102.014 107.887 101.951 107.824C101.636 107.573 94.0866 94.7071 94.0866 94.5188C94.0866 94.4561 96.6031 92.5732 99.7488 90.3138C106.292 85.6067 107.11 84.3515 106.103 79.7071C105.222 75.6904 105.222 65.8996 106.103 62.1966C107.173 57.4268 106.544 56.2971 100.504 51.9665C97.4839 49.8954 94.7786 47.887 94.527 47.6987C94.0866 47.3222 101.322 33.8912 101.951 33.8912C102.077 33.8912 104.908 35.1464 108.305 36.7155C111.64 38.2845 115.1 39.5397 116.043 39.5397C117.05 39.5397 119.441 38.2218 122.335 36.0251C127.116 32.5105 132.275 29.6234 136.302 28.3054C140.139 27.0502 140.706 25.9833 141.461 17.9498L142.153 10.6695H150.08H158.07L158.762 17.9498Z" fill="white"/>
<path d="M142.593 43.682C137.56 45 133.533 47.4477 129.696 51.4644C125.858 55.4812 124.034 58.6193 122.712 63.8285C120.07 73.8075 123.027 84.1004 130.577 91.2552C134.603 95.0837 137.749 96.9038 142.971 98.2218C160.838 102.866 178.391 89.3724 178.391 70.9833C178.328 52.2803 160.775 38.7866 142.593 43.682ZM158.07 54.9791C165.682 58.6193 169.772 67.5314 167.444 75.4393C164.739 84.728 155.49 90.5649 146.62 88.5565C134.037 85.7322 128.06 71.4226 135.169 61.1297C140.517 53.41 149.639 50.8996 158.07 54.9791Z" fill="white"/>
<path d="M83.0767 146.234C82.3847 146.987 78.9244 158.159 74.2059 174.665L66.4675 201.841L58.792 217.657C52.8781 229.77 50.7391 233.598 49.7954 233.787C49.0404 233.912 41.5537 234.979 33.0603 236.046C24.1266 237.176 17.0802 238.368 16.2624 238.87C15.4445 239.372 14.6895 240.439 14.4379 241.255C14.2491 242.134 15.9478 254.874 18.2756 269.686C21.8617 292.594 22.6796 296.736 23.812 297.992L25.1332 299.372L55.898 299.247L86.7257 299.059L87.984 297.364L89.3052 295.607L85.8449 278.787L82.3847 261.967L88.5502 239.435L94.6528 216.841L99.8117 182.761L104.971 148.682L103.712 146.987C102.454 145.293 102.391 145.293 93.3316 145.105C84.9012 144.979 84.1462 145.042 83.0767 146.234ZM93.7091 156.088C93.5833 156.715 91.5701 169.519 89.3052 184.519L85.2158 211.82L78.484 236.548L71.8151 261.276L74.4575 274.833C75.9675 282.301 77.1628 288.577 77.0999 288.828C77.0999 289.142 66.9079 289.331 54.5139 289.331H31.9279L31.6133 287.95C30.8583 284.686 25.3219 247.845 25.5736 247.594C25.7623 247.469 32.6199 246.464 40.9245 245.397C51.6828 244.017 56.4642 243.138 57.4708 242.385C58.3516 241.757 62.3781 234.226 67.5999 223.431L76.282 205.544L83.3913 180.251L90.5634 155.021H92.2621C93.5833 155.021 93.8979 155.272 93.7091 156.088Z" fill="white"/>
<path d="M118.749 146.234C117.994 146.987 117.365 147.678 117.365 147.866C117.365 147.992 112.709 168.389 106.984 193.054C101.259 217.782 96.6031 239.184 96.6031 240.628C96.6031 246.276 103.461 296.297 104.404 297.803C105.096 298.808 106.229 299.435 108.053 299.686C109.563 299.874 129.57 300 152.471 299.874L194.245 299.686L195.566 298.117C196.825 296.736 197.328 293.347 200.599 268.18L204.186 239.874L193.49 193.933C187.639 168.703 182.795 147.929 182.795 147.803C182.795 147.678 182.166 146.987 181.411 146.234C180.153 145.105 179.209 144.979 171.03 144.979C162.285 144.979 161.908 145.042 160.461 146.548C159.58 147.364 158.888 148.682 158.888 149.498C158.888 150.314 159.894 157.092 161.09 164.686C162.285 172.218 163.292 178.494 163.292 178.619C163.292 178.682 161.97 178.18 160.335 177.427C157.755 176.297 156.182 176.046 150.08 176.046C143.977 176.046 142.404 176.297 139.888 177.427C138.189 178.18 136.868 178.682 136.868 178.619C136.868 178.494 137.875 172.218 139.07 164.686C140.265 157.092 141.272 150.314 141.272 149.498C141.272 148.682 140.58 147.364 139.699 146.548C138.252 145.042 137.875 144.979 129.13 144.979C120.951 144.979 120.007 145.105 118.749 146.234ZM129.947 155.586C129.947 155.9 127.116 174.289 123.656 196.443C120.196 218.661 117.365 237.552 117.365 238.494C117.365 239.435 117.868 240.879 118.497 241.632C119.567 242.95 120.825 243.201 134.918 244.644L150.206 246.213L165.368 244.644C179.335 243.201 180.593 242.95 181.662 241.632C182.292 240.879 182.795 239.435 182.795 238.494C182.795 237.552 179.964 218.661 176.504 196.443C173.043 174.289 170.212 155.9 170.212 155.586C170.212 155.272 171.03 155.021 171.974 155.021H173.735L183.676 197.95L193.553 240.816L190.659 263.347C189.086 275.774 187.639 286.632 187.451 287.636L187.073 289.331H150.08H113.087L112.709 287.636C112.52 286.632 111.073 275.711 109.438 263.347L106.481 240.816L116.421 197.887L126.424 155.021H128.186C129.13 155.021 129.947 155.272 129.947 155.586ZM157.944 187.971C164.298 191.046 167.947 196.946 167.884 203.975C167.821 210.941 164.424 216.527 158.196 219.602C141.901 227.699 125.229 209.623 134.918 194.435C139.951 186.59 149.576 183.891 157.944 187.971ZM137.56 229.142C142.782 231.715 148.884 232.657 154.484 231.715C159.202 230.9 164.99 228.326 168.199 225.628C170.527 223.682 170.527 223.745 171.345 229.582C172.037 234.226 173.232 233.661 159.517 234.979C150.52 235.795 148.947 235.795 139.07 234.728C133.219 234.1 128.375 233.536 128.312 233.536C128.186 233.41 129.381 225.565 129.696 224.812C129.884 224.184 130.514 224.372 131.961 225.628C133.03 226.506 135.547 228.075 137.56 229.142Z" fill="white"/>
<path d="M196.762 146.423C195.881 147.364 195.378 148.682 195.378 150.063C195.378 151.255 197.643 166.883 200.348 184.833L205.381 217.469L211.421 239.686L217.46 261.841L214.252 277.469C212.553 286.067 211.106 293.975 211.106 294.916C211.106 296.172 211.735 297.238 213.056 298.368L215.007 300H244.136C261.06 300 273.957 299.749 274.901 299.372C275.781 299.059 276.788 298.243 277.103 297.552C277.48 296.862 279.682 284.31 282.01 269.623C286.477 240.941 286.477 240.251 283.268 238.619C282.513 238.243 275.089 237.05 266.785 235.983C258.48 234.916 251.119 233.912 250.364 233.787C249.358 233.598 247.281 229.77 241.368 217.657L233.692 201.778L225.891 174.477C219.725 152.824 217.838 146.987 216.768 146.109C215.573 145.167 214.063 144.979 206.765 144.979C198.523 144.979 198.02 145.042 196.762 146.423ZM216.705 180.251L223.878 205.544L232.56 223.431C237.844 234.414 241.808 241.695 242.689 242.385C243.695 243.138 248.603 244.017 259.235 245.397C267.477 246.464 274.397 247.469 274.523 247.594C274.775 247.845 269.616 281.925 268.546 287.573L268.232 289.331H245.646C233.189 289.331 223.06 289.142 223.06 288.828C222.997 288.577 224.192 282.301 225.702 274.77L228.344 261.213L221.801 237.113L215.258 213.075L210.792 184.017L206.325 155.021H207.96C209.596 155.021 209.659 155.335 216.705 180.251Z" fill="white"/>
<path d="M20.8551 176.423C13.8087 178.117 6.13325 184.519 2.79883 191.674C-8.58855 216.025 16.8915 240.941 41.0504 229.08C57.7225 220.858 61.8119 198.138 48.9775 184.456C45.4543 180.69 41.9311 178.557 36.7722 176.925C32.6828 175.669 25.1961 175.418 20.8551 176.423ZM35.7027 187.531C46.5238 192.301 49.6695 206.611 41.8053 215.523C34.5702 223.745 22.1133 223.745 14.8783 215.523C2.29552 201.276 18.2756 179.812 35.7027 187.531Z" fill="white"/>
<path d="M263.199 176.925C255.649 179.372 249.609 184.707 246.086 192.05C244.45 195.565 244.136 196.946 243.947 202.531C243.695 207.866 243.884 209.561 245.079 213.013C251.623 232.657 277.165 238.494 291.95 223.745C304.407 211.255 302.079 189.665 287.232 180.126C280.5 175.795 270.811 174.54 263.199 176.925ZM279.305 187.594C290.189 192.866 293.146 206.611 285.281 215.523C278.55 223.18 267.351 223.808 259.738 216.967C254.391 212.134 252.566 204.414 255.146 197.573C256.781 193.117 261.94 188.159 266.344 186.715C270.182 185.523 275.718 185.9 279.305 187.594Z" fill="white"/>
</svg>
