<svg width="480" height="481" viewBox="0 0 480 481" fill="none" xmlns="http://www.w3.org/2000/svg">
<path d="M377.5 2.01479C375.7 3.81479 375.5 5.31479 375.5 18.0148V32.0148H356.3C334.7 32.0148 331.9 32.7148 325.8 39.1148C320 45.3148 319.5 47.7148 319.5 71.0148C319.5 90.7148 319.6 92.1148 321.5 94.0148C322.6 95.1148 324.1 96.0148 324.9 96.0148C326 96.0148 325.5 97.6148 323.2 102.215L320 108.315L319.7 238.215L319.5 368.015H307.9C297.2 368.015 296.3 367.915 297 366.215C297.4 365.315 298.8 359.815 300.2 354.015C303.6 339.515 304.5 312.415 302.1 296.715C299.1 277.915 293.1 260.515 284 244.515L279.5 236.715V169.015C279.5 105.015 279.4 100.915 277.5 93.6148C271.2 68.8148 250.7 48.3148 225.9 42.0148C218.6 40.1148 214.6 40.0148 151.5 40.0148C88.4 40.0148 84.4 40.1148 77.1 42.0148C52.3 48.3148 31.8 68.8148 25.5 93.6148C23.6 100.915 23.5 105.015 23.5 169.315C23.5 234.115 23.4 237.315 21.6 239.815C18.3 244.615 10.8 260.315 7.7 269.115C1.4 286.915 0 296.215 0 320.015C0 343.815 1.4 353.115 7.7 370.915C17.3 398.215 39.3 428.315 55.3 436.215C61.9 439.515 62.1 439.515 78.7 439.815L95.5 440.215V451.115C95.5 463.415 96.7 467.515 101.8 472.915C108.5 479.915 108.6 480.015 151.5 480.015C194.4 480.015 194.5 479.915 201.2 472.915C205.8 468.015 207.5 463.215 207.5 455.015V448.015H271.5H335.5V455.215C335.5 463.715 337.5 468.915 342.6 473.715C349.2 480.015 349.5 480.015 391.7 480.015C434.4 480.015 434.5 479.915 441.2 472.915C447.1 466.715 447.5 464.515 447.5 439.015V416.015H454.8C459.6 416.015 463.3 415.415 466 414.115C471.1 411.815 477.1 405.215 478.5 400.315C479.3 397.615 479.5 355.515 479.3 252.415L479 108.315L475.8 102.215C473.5 97.6148 473 96.0148 474.1 96.0148C474.9 96.0148 476.4 95.1148 477.5 94.0148C479.4 92.1148 479.5 90.7148 479.5 71.0148C479.5 47.7148 479 45.3148 473.2 39.1148C467.1 32.7148 464.3 32.0148 442.8 32.0148H423.5V18.0148C423.5 -1.18521 425.1 0.0147939 399.5 0.0147939C380.8 0.0147939 379.4 0.114794 377.5 2.01479ZM407.5 24.0148V32.0148H399.5H391.5V24.0148V16.0148H399.5H407.5V24.0148ZM457.9 49.4148C462.4 51.3148 463.5 54.9148 463.5 68.6148V80.0148H399.5H335.5V68.6148C335.5 55.2148 336.6 51.3148 340.9 49.4148C345.5 47.4148 453.1 47.4148 457.9 49.4148ZM221 58.2148C233.7 62.0148 244 69.0148 251.2 78.5148C260.1 90.2148 262.3 97.9148 263.2 119.715L263.8 136.015H247.8H231.7L231.3 126.215C231 117.915 230.5 115.515 228 110.515C224.3 102.815 216.7 95.2148 209 91.4148L203 88.5148H151.5H100L94 91.4148C86.3 95.2148 78.7 102.815 75 110.515C72.5 115.515 72 117.915 71.7 126.215L71.3 136.015H55.4H39.5V125.715C39.5 104.815 42.2 92.5148 49 82.3148C58.5 68.0148 72.8 59.1148 89.5 57.0148C93.1 56.6148 123 56.3148 156 56.4148C206.2 56.6148 216.8 56.9148 221 58.2148ZM448.5 98.6148C453.9 101.215 458.8 106.115 461.2 111.515C462.7 115.015 463 119.415 463.3 145.715L463.7 176.015H399.5H335.3L335.7 145.715C336.1 112.315 336.3 110.915 342.8 104.215C346.7 100.115 350.3 98.2148 355.8 97.0148C358.1 96.5148 378.9 96.2148 402 96.3148C442.6 96.5148 444.2 96.6148 448.5 98.6148ZM200.5 106.615C205.9 109.215 210.8 114.115 213.2 119.515C214.7 123.015 215 127.315 215.3 152.215C215.5 168.115 215.5 181.015 215.3 181.015C215 181.015 210.2 179.215 204.4 177.115C185.7 170.015 176.2 168.515 151.5 168.515C132.6 168.515 128.7 168.815 119.5 170.815C110.8 172.815 97.7 177.015 89.2 180.515C87.4 181.215 87.4 180.115 87.7 152.415C88.1 120.515 88.4 118.915 94.8 112.215C98.7 108.115 102.3 106.215 107.8 105.015C110.1 104.515 130.9 104.215 154 104.315C194.6 104.515 196.2 104.615 200.5 106.615ZM71.5 160.015V168.015H55.5H39.5V160.015V152.015H55.5H71.5V160.015ZM263.5 160.015V168.015H247.5H231.5V160.015V152.015H247.5H263.5V160.015ZM71.5 186.915C71.5 189.415 70.4 190.615 63.4 195.515C58.9 198.715 51.7 204.615 47.4 208.715L39.5 216.315V200.115V184.015H55.5H71.5V186.915ZM164.6 185.415C175.2 186.115 190.9 190.015 203.1 195.015C238 209.215 266 238.715 279 274.815C284.9 291.215 286 298.015 286 320.015C286 341.315 284.9 348.815 279.8 363.215L278.1 368.015H242.8H207.5V361.015C207.5 352.815 205.8 348.015 201.2 343.115C194.5 336.115 194.4 336.015 151.5 336.015C108.6 336.015 108.5 336.115 101.8 343.115C95.6 349.715 95.5 350.315 95.5 389.115V424.315L81.7 423.815C65.1 423.315 61.4 421.915 53.3 413.115C36.8 395.315 25.8 375.015 19.8 351.315C17.2 341.215 17 339.215 17.1 319.515C17.1 299.215 17.2 298.115 20.2 287.015C33.8 236.815 70.8 200.315 120 188.415C130 186.015 147.7 184.015 153.5 184.615C154.9 184.815 159.9 185.115 164.6 185.415ZM263.5 200.115V216.315L256.3 209.415C252.3 205.615 245.1 199.615 240.3 196.115C232.7 190.715 231.5 189.415 231.5 186.915V184.015H247.5H263.5V200.115ZM463.5 291.415C463.5 362.915 463.2 391.615 462.4 394.015C461.1 397.715 456.7 400.015 451 400.015H447.5V376.715C447.5 350.815 447 348.615 440.4 342.315C433.8 336.015 433.5 336.015 391.5 336.015C349.5 336.015 349.2 336.015 342.6 342.315C340.8 344.115 338.4 347.315 337.4 349.515C335.6 353.415 335.5 352.215 335.5 272.715V192.015H399.5H463.5V291.415ZM185.9 353.415C188.2 354.315 189.6 355.815 190.4 358.015C192 362.615 192 453.415 190.4 458.015C188.4 463.715 186.3 464.015 151.7 464.015C117.3 464.015 115.1 463.715 112.9 458.415C111.1 454.015 110.8 363.215 112.6 358.015C114.6 352.415 116.4 352.115 151.3 352.015C175.8 352.015 183.3 352.315 185.9 353.415ZM425.9 353.415C428.2 354.315 429.6 355.815 430.4 358.015C432 362.615 432 453.415 430.4 458.015C428.4 463.715 426.3 464.015 391.7 464.015C357.3 464.015 355.1 463.715 352.9 458.415C351.1 454.015 350.8 363.215 352.6 358.015C354.6 352.415 356.4 352.115 391.3 352.015C415.8 352.015 423.3 352.315 425.9 353.415ZM335.5 408.015V432.015H271.5H207.5V408.015V384.015H271.5H335.5V408.015Z" fill="white"/>
</svg>
