<svg width="472" height="484" viewBox="0 0 472 484" fill="none" xmlns="http://www.w3.org/2000/svg">
<path d="M208.4 1.76322C204.5 3.56322 200.3 7.96322 198.4 12.3632C198 13.4632 197.3 21.5632 197 30.3632L196.5 46.3632L188.5 50.3632C184.1 52.6632 177.6 56.4632 174 58.8632C170.5 61.2632 166.8 63.1632 166 63.1632C165.1 63.0632 159.1 60.0632 152.6 56.5632C139.3 49.2632 134.8 48.1632 127.5 50.3632C120.7 52.3632 117.9 55.5632 107.6 73.1632C93.9 96.6632 93 99.0632 95.1 107.163C96.7 113.863 100.3 117.163 113 124.263C119.3 127.863 125 131.163 125.5 131.663C126.2 132.163 126.5 139.063 126.5 149.963L126.4 167.363L114.7 173.963C108.2 177.563 101.6 181.863 99.9 183.463C96.2 186.963 93.6 195.263 94.6 200.563C95.2 204.163 112.5 235.763 117.8 242.763C121.1 247.163 127.1 249.863 134 249.863C138.9 249.863 140.7 249.163 152.2 242.863C159.2 238.963 165.5 235.863 166.2 235.863C166.8 235.863 170.3 237.763 173.9 240.063C177.4 242.463 184 246.163 188.4 248.363L196.5 252.363L197 268.363C197.5 285.163 198.1 287.463 203.1 292.763C208.2 298.163 211.6 298.863 235.5 298.863C247.8 298.863 259.2 298.363 261.3 297.763C266 296.463 271.2 291.963 273.6 287.063C275.1 284.163 275.6 280.163 276 267.863L276.5 252.363L285.4 247.663C290.4 245.063 296.8 241.263 299.7 239.363C302.6 237.463 305.6 235.863 306.4 235.863C307.1 235.863 313.1 238.863 319.6 242.563C330 248.363 332.3 249.263 337.7 249.663C342.6 249.963 344.8 249.663 348.4 247.863C353.9 245.263 354.4 244.563 367.6 221.663C377.6 204.263 378 203.263 378 197.663C378 191.563 375.8 185.663 372.5 182.763C371.6 181.963 365.3 178.163 358.6 174.363L346.5 167.363V150.063C346.5 140.463 346.7 132.363 347 131.863C347.3 131.463 352.6 128.263 358.7 124.863C375.4 115.663 378.7 111.463 377.8 99.9632C377.4 95.0632 376.2 92.2632 367 76.3632C355.7 56.7632 351.5 51.6632 345.5 49.9632C337.3 47.6632 334.5 48.4632 318.2 57.5632L306.8 63.9632L300 59.4632C296.3 57.0632 289.6 53.1632 285.2 50.9632C280.9 48.7632 277 46.2632 276.6 45.3632C276.3 44.4632 276 37.2632 276 29.4632C276 16.7632 275.8 14.8632 273.8 10.8632C272.4 8.26322 269.7 5.16322 267.2 3.36322L262.8 0.363216L237.7 0.0632158C214.8 -0.136784 212.1 0.0632158 208.4 1.76322ZM258 16.8632C259.8 18.6632 260 20.1632 260 33.3632C260 43.5632 260.4 48.8632 261.4 51.1632C263.4 55.8632 268.6 60.3632 276.5 64.2632C280.4 66.1632 286.4 69.7632 290 72.2632C302.2 80.9632 307.2 80.7632 325.6 70.7632C338.8 63.5632 341 63.0632 343.1 67.1632C343.7 68.3632 348.3 76.1632 353.2 84.5632C358.1 92.9632 362 100.563 361.8 101.463C361.6 102.363 356.2 106.163 349.7 109.863C329.2 121.563 329.6 120.763 329.9 148.163C330 159.663 330.5 170.063 331 171.363C332.9 176.263 338.5 180.963 349.6 186.963C356.3 190.663 361.2 193.963 361.6 195.063C362 196.363 359.1 202.163 352.5 213.663C342 231.763 340.5 233.863 338.2 233.863C337.4 233.863 331.4 230.963 324.9 227.363C307.7 217.763 302 217.563 289.5 226.363C286.2 228.763 280.1 232.263 276 234.363C261.4 241.563 260 244.263 260 264.863C260 285.263 261.7 283.863 236.2 283.863C218.5 283.863 216.1 283.663 214.7 282.063C213.5 280.663 213.1 277.263 212.8 264.163C212.5 248.063 212.5 248.063 209.5 243.763C207.3 240.563 204.4 238.363 198.5 235.263C194.1 233.063 186.9 228.863 182.6 225.963C173.5 220.063 171.7 219.463 165 220.063C161.3 220.463 157.1 222.263 147.5 227.763C140 232.063 134.2 234.763 133.2 234.463C132.2 234.163 127.9 227.663 123.5 220.163C119.1 212.663 114.4 204.563 113 202.163C111 198.763 110.7 197.563 111.6 196.163C112.2 195.163 118 191.363 124.5 187.763C137 180.763 140.1 177.963 141.8 171.963C143.1 167.563 143.1 130.363 141.8 126.863C140.1 122.363 134.6 117.763 123.2 111.563C115.5 107.263 111.7 104.663 111.4 103.263C110.7 100.563 130.6 66.1632 133.2 65.5632C134.1 65.2632 140.4 68.2632 147.2 72.2632L159.5 79.3632H167.1C174.7 79.3632 174.7 79.3632 183.1 73.7632C187.7 70.6632 194.7 66.5632 198.5 64.5632C211.5 58.0632 213 54.8632 213 33.7632C213 20.9632 213.3 18.2632 214.7 16.6632C216.2 15.0632 218.2 14.8632 236.2 14.8632C254.7 14.8632 256.1 14.9632 258 16.8632Z" fill="white"/>
<path d="M220 74.3632C180.9 83.1632 156.1 117.563 160.1 157.363C163.3 188.863 185.7 214.863 217.1 223.463C225.8 225.863 246 225.963 255 223.563C258.6 222.663 265.8 219.763 271 217.163C279.1 213.163 281.9 211.163 290 202.963C300.9 192.063 306.5 182.363 310.1 168.363C312.8 157.563 312.9 141.263 310.1 130.763C308.2 123.163 302.2 109.963 299.2 106.563C297.3 104.463 291.3 104.263 288.3 106.363C284.6 108.963 284.8 112.663 289 121.363C294.8 133.363 296.3 140.363 295.8 152.863C295.3 164.363 293.7 170.263 288.7 178.563L285.7 183.763L281.9 180.563C275.9 175.363 267.6 170.863 258.3 167.563C250.1 164.663 248.6 164.463 236 164.463C224.1 164.463 221.6 164.763 214.5 167.163C205.9 170.063 196.1 175.463 189.9 180.663L186.1 183.963L182.1 175.663C176.9 164.663 175.6 158.263 176.3 146.163C176.9 134.063 179.5 126.263 186.2 116.163C194.7 103.663 206.8 95.1632 222 91.2632C231.8 88.7632 247.3 89.7632 256.5 93.3632C265.6 96.8632 270.3 97.5632 273.4 95.5632C276.4 93.5632 277.5 89.3632 275.9 85.6632C274.6 82.4632 266.4 78.0632 256.5 75.3632C248.1 73.0632 228.3 72.4632 220 74.3632ZM246.5 180.363C254.3 182.063 265.7 187.263 271 191.663L274.4 194.563L270 197.863C262.8 203.063 251.8 207.763 243.6 209.063C230 211.163 214.4 206.963 202 197.863L197.6 194.563L201 191.663C208.9 185.063 225 179.163 235.5 178.963C237.7 178.963 242.7 179.563 246.5 180.363Z" fill="white"/>
<path d="M225.4 102.763C209.4 110.063 205 131.063 216.8 144.063C222.4 150.263 227.2 152.363 236 152.363C241.7 152.363 244.4 151.863 247.6 150.163C256.1 145.663 261.1 138.163 261.8 128.863C262.6 117.763 257.7 108.663 248.1 103.663C241.5 100.163 231.9 99.8632 225.4 102.763ZM242.7 120.363C245.8 123.463 246.2 124.363 245.7 127.563C244.4 135.263 237.1 138.763 231 134.663C225.1 130.663 224.5 124.263 229.5 119.263C233.2 115.563 238.3 115.963 242.7 120.363Z" fill="white"/>
<path d="M429.6 307.363C427.5 308.163 420.5 312.663 414.1 317.263C399.8 327.563 392.2 332.263 380 338.663C369.9 343.963 367.2 346.763 368.3 351.063C370.2 358.663 376.3 358.763 390.3 351.563C402.6 345.163 412.4 338.863 424.7 329.663C435.1 321.963 438.8 320.663 444.1 323.363C453.8 328.263 456.6 332.963 453.4 339.063C449.9 345.863 402.3 392.263 373 417.363C345.4 441.063 329.1 451.563 316 454.363C292.6 459.263 271.2 461.263 257.9 459.863C245 458.463 240.2 456.963 223.8 449.263C207.4 441.563 193.2 436.763 176.1 433.163C165.3 430.863 161 430.463 145.5 430.463C126.1 430.363 117.4 431.663 103.5 436.563C85.2 443.063 79.5 449.163 85 456.163C88.2 460.263 91.2 460.363 99.8 456.463C117.2 448.663 130.5 446.263 151.4 447.163C174.5 448.163 190.3 452.263 216.6 463.963C240.2 474.463 246.3 476.063 264.7 476.663C285.8 477.263 317.3 473.063 331.5 467.763C342.3 463.763 365.3 447.063 391 424.663C417.5 401.563 464.9 355.563 469.6 348.363C472.2 344.463 472.3 327.863 469.8 323.363C464.6 313.863 452.2 306.563 440.5 306.163C436.2 305.963 432 306.463 429.6 307.363Z" fill="white"/>
<path d="M126.8 308.363C107.3 312.063 94.6 320.563 82 338.563C79.2 342.563 75 347.363 72.7 349.363L68.5 352.963L68 345.063C67.2 332.063 69.3 332.863 33.8 332.863C5.3 332.863 3.9 332.963 2 334.863C0.1 336.763 0 338.163 0 385.763V434.763L2.6 436.763C6.2 439.563 10.5 439.463 13.5 436.363L16 433.963V391.363V348.863H35H54V407.863V466.863H30.6C8 466.863 7.2 466.963 3.9 469.163C1.1 471.063 0.4 472.163 0.2 475.563C0 478.763 0.4 480.263 1.9 481.763C3.9 483.763 5.1 483.863 34.8 483.863H65.7L67.8 481.563L70 479.263V426.663V374.163L74.3 371.363C81.5 366.563 91.9 356.763 97 349.863C112.3 329.263 126.3 323.163 156 324.163C179.3 324.963 191.6 328.263 227.5 343.363C271.5 361.763 296.8 369.363 329.2 373.863C344.3 375.963 346.6 376.963 351.1 383.263C357.1 391.363 353.6 398.463 342.4 400.963C338.2 401.963 328.3 402.363 308.5 402.363C278.2 402.363 269.4 401.463 244.7 395.963C231.9 393.063 227.7 393.163 225.3 396.563C223.3 399.163 223.8 403.463 226.3 406.263C229.9 410.363 256.5 415.563 285.7 417.963C311.2 419.963 347.3 417.663 356.4 413.363C360.7 411.363 365.6 405.863 367.8 400.963C370.3 395.163 369.8 384.363 366.8 377.763C360.6 364.163 354.5 360.663 330.7 357.263C298.6 352.763 277.7 346.263 223.2 323.963C192.4 311.263 177.8 307.963 151.5 307.263C139.3 307.063 132.3 307.363 126.8 308.363Z" fill="white"/>
</svg>
